<svg width="628" height="348" viewBox="0 0 628 348" fill="none" xmlns="http://www.w3.org/2000/svg">
<path d="M513.047 344.14C512.127 344.14 511.3 343.98 510.567 343.66C509.847 343.327 509.28 342.873 508.867 342.3C508.453 341.713 508.24 341.04 508.227 340.28H510.167C510.233 340.933 510.5 341.487 510.967 341.94C511.447 342.38 512.14 342.6 513.047 342.6C513.913 342.6 514.593 342.387 515.087 341.96C515.593 341.52 515.847 340.96 515.847 340.28C515.847 339.747 515.7 339.313 515.407 338.98C515.113 338.647 514.747 338.393 514.307 338.22C513.867 338.047 513.273 337.86 512.527 337.66C511.607 337.42 510.867 337.18 510.307 336.94C509.76 336.7 509.287 336.327 508.887 335.82C508.5 335.3 508.307 334.607 508.307 333.74C508.307 332.98 508.5 332.307 508.887 331.72C509.273 331.133 509.813 330.68 510.507 330.36C511.213 330.04 512.02 329.88 512.927 329.88C514.233 329.88 515.3 330.207 516.127 330.86C516.967 331.513 517.44 332.38 517.547 333.46H515.547C515.48 332.927 515.2 332.46 514.707 332.06C514.213 331.647 513.56 331.44 512.747 331.44C511.987 331.44 511.367 331.64 510.887 332.04C510.407 332.427 510.167 332.973 510.167 333.68C510.167 334.187 510.307 334.6 510.587 334.92C510.88 335.24 511.233 335.487 511.647 335.66C512.073 335.82 512.667 336.007 513.427 336.22C514.347 336.473 515.087 336.727 515.647 336.98C516.207 337.22 516.687 337.6 517.087 338.12C517.487 338.627 517.687 339.32 517.687 340.2C517.687 340.88 517.507 341.52 517.147 342.12C516.787 342.72 516.253 343.207 515.547 343.58C514.84 343.953 514.007 344.14 513.047 344.14Z" fill="#7C828A"/>
<path d="M589.275 344.14C588.355 344.14 587.528 343.98 586.795 343.66C586.075 343.327 585.508 342.873 585.095 342.3C584.682 341.713 584.468 341.04 584.455 340.28H586.395C586.462 340.933 586.728 341.487 587.195 341.94C587.675 342.38 588.368 342.6 589.275 342.6C590.142 342.6 590.822 342.387 591.315 341.96C591.822 341.52 592.075 340.96 592.075 340.28C592.075 339.747 591.928 339.313 591.635 338.98C591.342 338.647 590.975 338.393 590.535 338.22C590.095 338.047 589.502 337.86 588.755 337.66C587.835 337.42 587.095 337.18 586.535 336.94C585.988 336.7 585.515 336.327 585.115 335.82C584.728 335.3 584.535 334.607 584.535 333.74C584.535 332.98 584.728 332.307 585.115 331.72C585.502 331.133 586.042 330.68 586.735 330.36C587.442 330.04 588.248 329.88 589.155 329.88C590.462 329.88 591.528 330.207 592.355 330.86C593.195 331.513 593.668 332.38 593.775 333.46H591.775C591.708 332.927 591.428 332.46 590.935 332.06C590.442 331.647 589.788 331.44 588.975 331.44C588.215 331.44 587.595 331.64 587.115 332.04C586.635 332.427 586.395 332.973 586.395 333.68C586.395 334.187 586.535 334.6 586.815 334.92C587.108 335.24 587.462 335.487 587.875 335.66C588.302 335.82 588.895 336.007 589.655 336.22C590.575 336.473 591.315 336.727 591.875 336.98C592.435 337.22 592.915 337.6 593.315 338.12C593.715 338.627 593.915 339.32 593.915 340.2C593.915 340.88 593.735 341.52 593.375 342.12C593.015 342.72 592.482 343.207 591.775 343.58C591.068 343.953 590.235 344.14 589.275 344.14Z" fill="#7C828A"/>
<path d="M441.305 330.06V331.54H435.245V336.24H440.165V337.72H435.245V344H433.425V330.06H441.305Z" fill="#7C828A"/>
<path d="M365.599 330.06V331.54H361.799V344H359.979V331.54H356.159V330.06H365.599Z" fill="#7C828A"/>
<path d="M296.86 330.06L292.82 344H290.78L287.54 332.78L284.18 344L282.16 344.02L278.26 330.06H280.2L283.24 341.88L286.6 330.06H288.64L291.84 341.84L294.9 330.06H296.86Z" fill="#7C828A"/>
<path d="M214.928 330.06V331.54H211.128V344H209.308V331.54H205.488V330.06H214.928Z" fill="#7C828A"/>
<path d="M146.251 330.16V344H144.431V333.68L139.831 344H138.551L133.931 333.66V344H132.111V330.16H134.071L139.191 341.6L144.311 330.16H146.251Z" fill="#7C828A"/>
<path d="M97 134H592" stroke="#7C828A" stroke-dasharray="1 3"/>
<rect x="200" y="116" width="20" height="194" rx="4" fill="#D5CEA3"/>
<rect x="278" y="18" width="20" height="292" rx="4" fill="#D5CEA3"/>
<rect x="427" y="58" width="20" height="252" rx="4" fill="#D5CEA3"/>
<rect x="129" y="225" width="20" height="85" rx="4" fill="#3C2A21"/>
<rect x="351" y="145" width="20" height="165" rx="4" fill="#3C2A21"/>
<rect x="503" y="200" width="20" height="110" rx="4" fill="#3C2A21"/>
<rect x="579" y="169" width="20" height="141" rx="4" fill="#3C2A21"/>
<path d="M5.10414 103.203V117.143H3.28414V103.203H5.10414ZM12.546 103.203C14.066 103.203 15.3793 103.489 16.486 104.063C17.606 104.623 18.4593 105.429 19.046 106.483C19.646 107.536 19.946 108.776 19.946 110.203C19.946 111.629 19.646 112.869 19.046 113.923C18.4593 114.963 17.606 115.763 16.486 116.323C15.3793 116.869 14.066 117.143 12.546 117.143H8.20602V103.203H12.546ZM12.546 115.643C14.346 115.643 15.7193 115.169 16.666 114.223C17.6127 113.263 18.086 111.923 18.086 110.203C18.086 108.469 17.606 107.116 16.646 106.143C15.6993 105.169 14.3327 104.683 12.546 104.683H10.026V115.643H12.546ZM29.6866 117.143L26.3666 111.443H24.1666V117.143H22.3466V103.203H26.8466C27.9 103.203 28.7866 103.383 29.5066 103.743C30.24 104.103 30.7866 104.589 31.1466 105.203C31.5066 105.816 31.6866 106.516 31.6866 107.303C31.6866 108.263 31.4066 109.109 30.8466 109.843C30.3 110.576 29.4733 111.063 28.3666 111.303L31.8666 117.143H29.6866ZM24.1666 109.983H26.8466C27.8333 109.983 28.5733 109.743 29.0666 109.263C29.56 108.769 29.8066 108.116 29.8066 107.303C29.8066 106.476 29.56 105.836 29.0666 105.383C28.5866 104.929 27.8466 104.703 26.8466 104.703H24.1666V109.983ZM39.0666 104.343V102.683H42.8266V117.143H40.9866V104.343H39.0666ZM60.3929 103.303V117.143H58.5729V106.823L53.9729 117.143H52.6929L48.0729 106.803V117.143H46.2529V103.303H48.2129L53.3329 114.743L58.4529 103.303H60.3929Z" fill="#7C828A"/>
<path d="M3.36 206.06V220H1.54V206.06H3.36ZM10.8019 206.06C12.3219 206.06 13.6352 206.347 14.7419 206.92C15.8619 207.48 16.7152 208.287 17.3019 209.34C17.9019 210.393 18.2019 211.633 18.2019 213.06C18.2019 214.487 17.9019 215.727 17.3019 216.78C16.7152 217.82 15.8619 218.62 14.7419 219.18C13.6352 219.727 12.3219 220 10.8019 220H6.46188V206.06H10.8019ZM10.8019 218.5C12.6019 218.5 13.9752 218.027 14.9219 217.08C15.8685 216.12 16.3419 214.78 16.3419 213.06C16.3419 211.327 15.8619 209.973 14.9019 209C13.9552 208.027 12.5885 207.54 10.8019 207.54H8.28188V218.5H10.8019ZM27.9425 220L24.6225 214.3H22.4225V220H20.6025V206.06H25.1025C26.1558 206.06 27.0425 206.24 27.7625 206.6C28.4958 206.96 29.0425 207.447 29.4025 208.06C29.7625 208.673 29.9425 209.373 29.9425 210.16C29.9425 211.12 29.6625 211.967 29.1025 212.7C28.5558 213.433 27.7292 213.92 26.6225 214.16L30.1225 220H27.9425ZM22.4225 212.84H25.1025C26.0892 212.84 26.8292 212.6 27.3225 212.12C27.8158 211.627 28.0625 210.973 28.0625 210.16C28.0625 209.333 27.8158 208.693 27.3225 208.24C26.8425 207.787 26.1025 207.56 25.1025 207.56H22.4225V212.84ZM46.7025 206.96L41.1425 220H39.3025L44.9425 207.14H37.2225V205.58H46.7025V206.96ZM48.7205 212.62C48.7205 210.327 49.0938 208.54 49.8405 207.26C50.5871 205.967 51.8938 205.32 53.7605 205.32C55.6138 205.32 56.9138 205.967 57.6605 207.26C58.4071 208.54 58.7805 210.327 58.7805 212.62C58.7805 214.953 58.4071 216.767 57.6605 218.06C56.9138 219.353 55.6138 220 53.7605 220C51.8938 220 50.5871 219.353 49.8405 218.06C49.0938 216.767 48.7205 214.953 48.7205 212.62ZM56.9805 212.62C56.9805 211.46 56.9005 210.48 56.7405 209.68C56.5938 208.867 56.2805 208.213 55.8005 207.72C55.3338 207.227 54.6538 206.98 53.7605 206.98C52.8538 206.98 52.1605 207.227 51.6805 207.72C51.2138 208.213 50.9005 208.867 50.7405 209.68C50.5938 210.48 50.5205 211.46 50.5205 212.62C50.5205 213.82 50.5938 214.827 50.7405 215.64C50.9005 216.453 51.2138 217.107 51.6805 217.6C52.1605 218.093 52.8538 218.34 53.7605 218.34C54.6538 218.34 55.3338 218.093 55.8005 217.6C56.2805 217.107 56.5938 216.453 56.7405 215.64C56.9005 214.827 56.9805 213.82 56.9805 212.62ZM61.2791 212.62C61.2791 210.327 61.6524 208.54 62.3991 207.26C63.1457 205.967 64.4524 205.32 66.3191 205.32C68.1724 205.32 69.4724 205.967 70.2191 207.26C70.9657 208.54 71.3391 210.327 71.3391 212.62C71.3391 214.953 70.9657 216.767 70.2191 218.06C69.4724 219.353 68.1724 220 66.3191 220C64.4524 220 63.1457 219.353 62.3991 218.06C61.6524 216.767 61.2791 214.953 61.2791 212.62ZM69.5391 212.62C69.5391 211.46 69.4591 210.48 69.2991 209.68C69.1524 208.867 68.8391 208.213 68.3591 207.72C67.8924 207.227 67.2124 206.98 66.3191 206.98C65.4124 206.98 64.7191 207.227 64.2391 207.72C63.7724 208.213 63.4591 208.867 63.2991 209.68C63.1524 210.48 63.0791 211.46 63.0791 212.62C63.0791 213.82 63.1524 214.827 63.2991 215.64C63.4591 216.453 63.7724 217.107 64.2391 217.6C64.7191 218.093 65.4124 218.34 66.3191 218.34C67.2124 218.34 67.8924 218.093 68.3591 217.6C68.8391 217.107 69.1524 216.453 69.2991 215.64C69.4591 214.827 69.5391 213.82 69.5391 212.62ZM81.6977 220L75.9577 213.64V220H74.1377V206.06H75.9577V212.52L81.7177 206.06H84.0177L77.6977 213.04L84.0777 220H81.6977Z" fill="#7C828A"/>
<path d="M40.24 321.62C40.24 319.327 40.6133 317.54 41.36 316.26C42.1067 314.967 43.4133 314.32 45.28 314.32C47.1333 314.32 48.4333 314.967 49.18 316.26C49.9267 317.54 50.3 319.327 50.3 321.62C50.3 323.953 49.9267 325.767 49.18 327.06C48.4333 328.353 47.1333 329 45.28 329C43.4133 329 42.1067 328.353 41.36 327.06C40.6133 325.767 40.24 323.953 40.24 321.62ZM48.5 321.62C48.5 320.46 48.42 319.48 48.26 318.68C48.1133 317.867 47.8 317.213 47.32 316.72C46.8533 316.227 46.1733 315.98 45.28 315.98C44.3733 315.98 43.68 316.227 43.2 316.72C42.7333 317.213 42.42 317.867 42.26 318.68C42.1133 319.48 42.04 320.46 42.04 321.62C42.04 322.82 42.1133 323.827 42.26 324.64C42.42 325.453 42.7333 326.107 43.2 326.6C43.68 327.093 44.3733 327.34 45.28 327.34C46.1733 327.34 46.8533 327.093 47.32 326.6C47.8 326.107 48.1133 325.453 48.26 324.64C48.42 323.827 48.5 322.82 48.5 321.62Z" fill="#7C828A"/>
<path d="M3.36 2.06V16H1.54V2.06H3.36ZM10.8019 2.06C12.3219 2.06 13.6352 2.34667 14.7419 2.92C15.8619 3.48 16.7152 4.28667 17.3019 5.34C17.9019 6.39333 18.2019 7.63333 18.2019 9.06C18.2019 10.4867 17.9019 11.7267 17.3019 12.78C16.7152 13.82 15.8619 14.62 14.7419 15.18C13.6352 15.7267 12.3219 16 10.8019 16H6.46188V2.06H10.8019ZM10.8019 14.5C12.6019 14.5 13.9752 14.0267 14.9219 13.08C15.8685 12.12 16.3419 10.78 16.3419 9.06C16.3419 7.32667 15.8619 5.97333 14.9019 5C13.9552 4.02667 12.5885 3.54 10.8019 3.54H8.28188V14.5H10.8019ZM27.9425 16L24.6225 10.3H22.4225V16H20.6025V2.06H25.1025C26.1558 2.06 27.0425 2.24 27.7625 2.6C28.4958 2.96 29.0425 3.44667 29.4025 4.06C29.7625 4.67333 29.9425 5.37333 29.9425 6.16C29.9425 7.12 29.6625 7.96667 29.1025 8.7C28.5558 9.43333 27.7292 9.92 26.6225 10.16L30.1225 16H27.9425ZM22.4225 8.84H25.1025C26.0892 8.84 26.8292 8.6 27.3225 8.12C27.8158 7.62667 28.0625 6.97333 28.0625 6.16C28.0625 5.33333 27.8158 4.69333 27.3225 4.24C26.8425 3.78667 26.1025 3.56 25.1025 3.56H22.4225V8.84ZM37.5825 14.54C39.2758 13.18 40.6025 12.0667 41.5625 11.2C42.5225 10.32 43.3292 9.40667 43.9825 8.46C44.6492 7.5 44.9825 6.56 44.9825 5.64C44.9825 4.77333 44.7692 4.09333 44.3425 3.6C43.9292 3.09333 43.2558 2.84 42.3225 2.84C41.4158 2.84 40.7092 3.12667 40.2025 3.7C39.7092 4.26 39.4425 5.01333 39.4025 5.96H37.6425C37.6958 4.46667 38.1492 3.31333 39.0025 2.5C39.8558 1.68667 40.9558 1.28 42.3025 1.28C43.6758 1.28 44.7625 1.66 45.5625 2.42C46.3758 3.18 46.7825 4.22667 46.7825 5.56C46.7825 6.66667 46.4492 7.74667 45.7825 8.8C45.1292 9.84 44.3825 10.76 43.5425 11.56C42.7025 12.3467 41.6292 13.2667 40.3225 14.32H47.2025V15.84H37.5825V14.54ZM50.1864 16.12C49.8397 16.12 49.5464 16 49.3064 15.76C49.0664 15.52 48.9464 15.2267 48.9464 14.88C48.9464 14.5333 49.0664 14.24 49.3064 14C49.5464 13.76 49.8397 13.64 50.1864 13.64C50.5197 13.64 50.7997 13.76 51.0264 14C51.2664 14.24 51.3864 14.5333 51.3864 14.88C51.3864 15.2267 51.2664 15.52 51.0264 15.76C50.7997 16 50.5197 16.12 50.1864 16.12ZM62.7256 3.12H55.7056V7.68C56.0123 7.25333 56.4656 6.90667 57.0656 6.64C57.6656 6.36 58.3123 6.22 59.0056 6.22C60.1123 6.22 61.0123 6.45333 61.7056 6.92C62.399 7.37333 62.8923 7.96667 63.1856 8.7C63.4923 9.42 63.6456 10.1867 63.6456 11C63.6456 11.96 63.4656 12.82 63.1056 13.58C62.7456 14.34 62.1923 14.94 61.4456 15.38C60.7123 15.82 59.799 16.04 58.7056 16.04C57.3056 16.04 56.1723 15.68 55.3056 14.96C54.439 14.24 53.9123 13.28 53.7256 12.08H55.5056C55.679 12.84 56.0456 13.4333 56.6056 13.86C57.1656 14.2867 57.8723 14.5 58.7256 14.5C59.779 14.5 60.5723 14.1867 61.1056 13.56C61.639 12.92 61.9056 12.08 61.9056 11.04C61.9056 10 61.639 9.2 61.1056 8.64C60.5723 8.06667 59.7856 7.78 58.7456 7.78C58.039 7.78 57.419 7.95333 56.8856 8.3C56.3656 8.63333 55.9856 9.09333 55.7456 9.68H54.0256V1.52H62.7256V3.12ZM80.5042 2.16V16H78.6842V5.68L74.0842 16H72.8042L68.1842 5.66V16H66.3642V2.16H68.3242L73.4442 13.6L78.5642 2.16H80.5042Z" fill="#7C828A"/>
</svg>
