<svg width="689" height="375" viewBox="0 0 689 375" fill="none" xmlns="http://www.w3.org/2000/svg">
<path d="M15.1041 103.203V117.143H13.2841V103.203H15.1041ZM22.546 103.203C24.066 103.203 25.3793 103.49 26.486 104.063C27.606 104.623 28.4593 105.43 29.046 106.483C29.646 107.536 29.946 108.776 29.946 110.203C29.946 111.63 29.646 112.87 29.046 113.923C28.4593 114.963 27.606 115.763 26.486 116.323C25.3793 116.87 24.066 117.143 22.546 117.143H18.206V103.203H22.546ZM22.546 115.643C24.346 115.643 25.7193 115.17 26.666 114.223C27.6127 113.263 28.086 111.923 28.086 110.203C28.086 108.47 27.606 107.116 26.646 106.143C25.6993 105.17 24.3327 104.683 22.546 104.683H20.026V115.643H22.546ZM39.6866 117.143L36.3666 111.443H34.1666V117.143H32.3466V103.203H36.8466C37.9 103.203 38.7866 103.383 39.5066 103.743C40.24 104.103 40.7866 104.59 41.1466 105.203C41.5066 105.816 41.6866 106.516 41.6866 107.303C41.6866 108.263 41.4066 109.11 40.8466 109.843C40.3 110.576 39.4733 111.063 38.3666 111.303L41.8666 117.143H39.6866ZM34.1666 109.983H36.8466C37.8333 109.983 38.5733 109.743 39.0666 109.263C39.56 108.77 39.8066 108.116 39.8066 107.303C39.8066 106.476 39.56 105.836 39.0666 105.383C38.5866 104.93 37.8466 104.703 36.8466 104.703H34.1666V109.983ZM49.5066 106.323C49.6 105.096 50.0733 104.136 50.9266 103.443C51.78 102.75 52.8866 102.403 54.2466 102.403C55.1533 102.403 55.9333 102.57 56.5866 102.903C57.2533 103.223 57.7533 103.663 58.0866 104.223C58.4333 104.783 58.6066 105.416 58.6066 106.123C58.6066 106.95 58.3666 107.663 57.8866 108.263C57.42 108.863 56.8066 109.25 56.0466 109.423V109.523C56.9133 109.736 57.6 110.156 58.1066 110.783C58.6133 111.41 58.8666 112.23 58.8666 113.243C58.8666 114.003 58.6933 114.69 58.3466 115.303C58 115.903 57.48 116.376 56.7866 116.723C56.0933 117.07 55.26 117.243 54.2866 117.243C52.8733 117.243 51.7133 116.876 50.8066 116.143C49.9 115.396 49.3933 114.343 49.2866 112.983H51.0466C51.14 113.783 51.4666 114.436 52.0266 114.943C52.5866 115.45 53.3333 115.703 54.2666 115.703C55.2 115.703 55.9066 115.463 56.3866 114.983C56.88 114.49 57.1266 113.856 57.1266 113.083C57.1266 112.083 56.7933 111.363 56.1266 110.923C55.46 110.483 54.4533 110.263 53.1066 110.263H52.6466V108.743H53.1266C54.3533 108.73 55.28 108.53 55.9066 108.143C56.5333 107.743 56.8466 107.13 56.8466 106.303C56.8466 105.596 56.6133 105.03 56.1466 104.603C55.6933 104.176 55.04 103.963 54.1866 103.963C53.36 103.963 52.6933 104.176 52.1866 104.603C51.68 105.03 51.38 105.603 51.2866 106.323H49.5066ZM75.764 103.303V117.143H73.944V106.823L69.344 117.143H68.064L63.444 106.803V117.143H61.624V103.303H63.584L68.704 114.743L73.824 103.303H75.764Z" fill="#7C828A"/>
<path d="M13.2975 203.346V217.286H11.4775V203.346H13.2975ZM20.7394 203.346C22.2594 203.346 23.5727 203.633 24.6794 204.206C25.7994 204.766 26.6527 205.573 27.2394 206.626C27.8394 207.679 28.1394 208.919 28.1394 210.346C28.1394 211.773 27.8394 213.013 27.2394 214.066C26.6527 215.106 25.7994 215.906 24.6794 216.466C23.5727 217.013 22.2594 217.286 20.7394 217.286H16.3994V203.346H20.7394ZM20.7394 215.786C22.5394 215.786 23.9127 215.313 24.8594 214.366C25.806 213.406 26.2794 212.066 26.2794 210.346C26.2794 208.613 25.7994 207.259 24.8394 206.286C23.8927 205.313 22.526 204.826 20.7394 204.826H18.2194V215.786H20.7394ZM37.88 217.286L34.56 211.586H32.36V217.286H30.54V203.346H35.04C36.0933 203.346 36.98 203.526 37.7 203.886C38.4333 204.246 38.98 204.733 39.34 205.346C39.7 205.959 39.88 206.659 39.88 207.446C39.88 208.406 39.6 209.253 39.04 209.986C38.4933 210.719 37.6667 211.206 36.56 211.446L40.06 217.286H37.88ZM32.36 210.126H35.04C36.0267 210.126 36.7667 209.886 37.26 209.406C37.7533 208.913 38 208.259 38 207.446C38 206.619 37.7533 205.979 37.26 205.526C36.78 205.073 36.04 204.846 35.04 204.846H32.36V210.126ZM47.74 209.906C47.74 207.613 48.1133 205.826 48.86 204.546C49.6067 203.253 50.9133 202.606 52.78 202.606C54.6333 202.606 55.9333 203.253 56.68 204.546C57.4267 205.826 57.8 207.613 57.8 209.906C57.8 212.239 57.4267 214.053 56.68 215.346C55.9333 216.639 54.6333 217.286 52.78 217.286C50.9133 217.286 49.6067 216.639 48.86 215.346C48.1133 214.053 47.74 212.239 47.74 209.906ZM56 209.906C56 208.746 55.92 207.766 55.76 206.966C55.6133 206.153 55.3 205.499 54.82 205.006C54.3533 204.513 53.6733 204.266 52.78 204.266C51.8733 204.266 51.18 204.513 50.7 205.006C50.2333 205.499 49.92 206.153 49.76 206.966C49.6133 207.766 49.54 208.746 49.54 209.906C49.54 211.106 49.6133 212.113 49.76 212.926C49.92 213.739 50.2333 214.393 50.7 214.886C51.18 215.379 51.8733 215.626 52.78 215.626C53.6733 215.626 54.3533 215.379 54.82 214.886C55.3 214.393 55.6133 213.739 55.76 212.926C55.92 212.113 56 211.106 56 209.906ZM68.1586 217.286L62.4186 210.926V217.286H60.5986V203.346H62.4186V209.806L68.1786 203.346H70.4786L64.1586 210.326L70.5386 217.286H68.1586Z" fill="#7C828A"/>
<path d="M9.14 313.454V314.994H1.16V313.454H9.14ZM14.3756 307.614V321.554H12.5556V307.614H14.3756ZM21.8175 307.614C23.3375 307.614 24.6508 307.901 25.7575 308.474C26.8775 309.034 27.7308 309.841 28.3175 310.894C28.9175 311.947 29.2175 313.187 29.2175 314.614C29.2175 316.041 28.9175 317.281 28.3175 318.334C27.7308 319.374 26.8775 320.174 25.7575 320.734C24.6508 321.281 23.3375 321.554 21.8175 321.554H17.4775V307.614H21.8175ZM21.8175 320.054C23.6175 320.054 24.9908 319.581 25.9375 318.634C26.8842 317.674 27.3575 316.334 27.3575 314.614C27.3575 312.881 26.8775 311.527 25.9175 310.554C24.9708 309.581 23.6042 309.094 21.8175 309.094H19.2975V320.054H21.8175ZM38.9581 321.554L35.6381 315.854H33.4381V321.554H31.6181V307.614H36.1181C37.1715 307.614 38.0581 307.794 38.7781 308.154C39.5115 308.514 40.0581 309.001 40.4181 309.614C40.7781 310.227 40.9581 310.927 40.9581 311.714C40.9581 312.674 40.6781 313.521 40.1181 314.254C39.5715 314.987 38.7448 315.474 37.6381 315.714L41.1381 321.554H38.9581ZM33.4381 314.394H36.1181C37.1048 314.394 37.8448 314.154 38.3381 313.674C38.8315 313.181 39.0781 312.527 39.0781 311.714C39.0781 310.887 38.8315 310.247 38.3381 309.794C37.8581 309.341 37.1181 309.114 36.1181 309.114H33.4381V314.394ZM48.5981 320.094C50.2915 318.734 51.6181 317.621 52.5781 316.754C53.5381 315.874 54.3448 314.961 54.9981 314.014C55.6648 313.054 55.9981 312.114 55.9981 311.194C55.9981 310.327 55.7848 309.647 55.3581 309.154C54.9448 308.647 54.2715 308.394 53.3381 308.394C52.4315 308.394 51.7248 308.681 51.2181 309.254C50.7248 309.814 50.4581 310.567 50.4181 311.514H48.6581C48.7115 310.021 49.1648 308.867 50.0181 308.054C50.8715 307.241 51.9715 306.834 53.3181 306.834C54.6915 306.834 55.7781 307.214 56.5781 307.974C57.3915 308.734 57.7981 309.781 57.7981 311.114C57.7981 312.221 57.4648 313.301 56.7981 314.354C56.1448 315.394 55.3981 316.314 54.5581 317.114C53.7181 317.901 52.6448 318.821 51.3381 319.874H58.2181V321.394H48.5981V320.094ZM74.762 307.714V321.554H72.942V311.234L68.342 321.554H67.062L62.442 311.214V321.554H60.622V307.714H62.582L67.702 319.154L72.822 307.714H74.762Z" fill="#7C828A"/>
<path d="M13.2971 2.06024V16.0002H11.4771V2.06024H13.2971ZM20.739 2.06024C22.259 2.06024 23.5723 2.34691 24.679 2.92024C25.799 3.48024 26.6523 4.28691 27.239 5.34024C27.839 6.39358 28.139 7.63358 28.139 9.06024C28.139 10.4869 27.839 11.7269 27.239 12.7802C26.6523 13.8202 25.799 14.6202 24.679 15.1802C23.5723 15.7269 22.259 16.0002 20.739 16.0002H16.399V2.06024H20.739ZM20.739 14.5002C22.539 14.5002 23.9123 14.0269 24.859 13.0802C25.8056 12.1202 26.279 10.7802 26.279 9.06024C26.279 7.32691 25.799 5.97358 24.839 5.00024C23.8923 4.02691 22.5256 3.54024 20.739 3.54024H18.219V14.5002H20.739ZM37.8796 16.0002L34.5596 10.3002H32.3596V16.0002H30.5396V2.06024H35.0396C36.0929 2.06024 36.9796 2.24024 37.6996 2.60024C38.4329 2.96024 38.9796 3.44691 39.3396 4.06024C39.6996 4.67358 39.8796 5.37358 39.8796 6.16024C39.8796 7.12024 39.5996 7.96691 39.0396 8.70024C38.4929 9.43358 37.6663 9.92024 36.5596 10.1602L40.0596 16.0002H37.8796ZM32.3596 8.84024H35.0396C36.0263 8.84024 36.7663 8.60024 37.2596 8.12024C37.7529 7.62691 37.9996 6.97358 37.9996 6.16024C37.9996 5.33358 37.7529 4.69358 37.2596 4.24024C36.7796 3.78691 36.0396 3.56024 35.0396 3.56024H32.3596V8.84024ZM56.9596 3.12024H49.9396V7.68024C50.2463 7.25358 50.6996 6.90691 51.2996 6.64024C51.8996 6.36024 52.5463 6.22024 53.2396 6.22024C54.3463 6.22024 55.2463 6.45358 55.9396 6.92024C56.6329 7.37358 57.1263 7.96691 57.4196 8.70024C57.7263 9.42024 57.8796 10.1869 57.8796 11.0002C57.8796 11.9602 57.6996 12.8202 57.3396 13.5802C56.9796 14.3402 56.4263 14.9402 55.6796 15.3802C54.9463 15.8202 54.0329 16.0402 52.9396 16.0402C51.5396 16.0402 50.4063 15.6802 49.5396 14.9602C48.6729 14.2402 48.1463 13.2802 47.9596 12.0802H49.7396C49.9129 12.8402 50.2796 13.4336 50.8396 13.8602C51.3996 14.2869 52.1063 14.5002 52.9596 14.5002C54.0129 14.5002 54.8063 14.1869 55.3396 13.5602C55.8729 12.9202 56.1396 12.0802 56.1396 11.0402C56.1396 10.0002 55.8729 9.20024 55.3396 8.64024C54.8063 8.06691 54.0196 7.78024 52.9796 7.78024C52.2729 7.78024 51.6529 7.95358 51.1196 8.30024C50.5996 8.63358 50.2196 9.09358 49.9796 9.68024H48.2596V1.52024H56.9596V3.12024ZM74.7382 2.16024V16.0002H72.9182V5.68024L68.3182 16.0002H67.0382L62.4182 5.66024V16.0002H60.5982V2.16024H62.5582L67.6782 13.6002L72.7982 2.16024H74.7382Z" fill="#7C828A"/>
<path d="M638.438 357.625V367.925C638.438 369.072 638.084 369.992 637.378 370.685C636.671 371.365 635.738 371.705 634.578 371.705C633.404 371.705 632.464 371.358 631.758 370.665C631.051 369.958 630.698 368.998 630.698 367.785H632.518C632.531 368.465 632.704 369.018 633.038 369.445C633.384 369.872 633.898 370.085 634.578 370.085C635.258 370.085 635.764 369.885 636.098 369.485C636.431 369.072 636.598 368.552 636.598 367.925V357.625H638.438ZM643.803 357.625V366.445C643.803 367.685 644.103 368.605 644.703 369.205C645.317 369.805 646.163 370.105 647.243 370.105C648.31 370.105 649.143 369.805 649.743 369.205C650.357 368.605 650.663 367.685 650.663 366.445V357.625H652.483V366.425C652.483 367.585 652.25 368.565 651.783 369.365C651.317 370.152 650.683 370.738 649.883 371.125C649.097 371.512 648.21 371.705 647.223 371.705C646.237 371.705 645.343 371.512 644.543 371.125C643.757 370.738 643.13 370.152 642.663 369.365C642.21 368.565 641.983 367.585 641.983 366.425V357.625H643.803ZM666.479 371.565H664.659L657.339 360.465V371.565H655.519V357.605H657.339L664.659 368.685V357.605H666.479V371.565Z" fill="#7C828A"/>
<path d="M544.417 357.725V371.565H542.597V361.245L537.997 371.565H536.717L532.097 361.225V371.565H530.277V357.725H532.237L537.357 369.165L542.477 357.725H544.417ZM555.743 368.465H549.663L548.543 371.565H546.623L551.663 357.705H553.763L558.783 371.565H556.863L555.743 368.465ZM555.223 366.985L552.703 359.945L550.183 366.985H555.223ZM570.74 357.625L566.2 366.305V371.565H564.38V366.305L559.82 357.625H561.84L565.28 364.685L568.72 357.625H570.74Z" fill="#7C828A"/>
<path d="M442.06 368.465H435.98L434.86 371.565H432.94L437.98 357.705H440.08L445.1 371.565H443.18L442.06 368.465ZM441.54 366.985L439.02 359.945L436.5 366.985H441.54ZM456.616 361.705C456.616 362.865 456.216 363.832 455.416 364.605C454.629 365.365 453.423 365.745 451.796 365.745H449.116V371.565H447.296V357.625H451.796C453.369 357.625 454.563 358.005 455.376 358.765C456.203 359.525 456.616 360.505 456.616 361.705ZM451.796 364.245C452.809 364.245 453.556 364.025 454.036 363.585C454.516 363.145 454.756 362.518 454.756 361.705C454.756 359.985 453.769 359.125 451.796 359.125H449.116V364.245H451.796ZM466.218 371.565L462.898 365.865H460.698V371.565H458.878V357.625H463.378C464.431 357.625 465.318 357.805 466.038 358.165C466.771 358.525 467.318 359.012 467.678 359.625C468.038 360.238 468.218 360.938 468.218 361.725C468.218 362.685 467.938 363.532 467.378 364.265C466.831 364.998 466.005 365.485 464.898 365.725L468.398 371.565H466.218ZM460.698 364.405H463.378C464.365 364.405 465.105 364.165 465.598 363.685C466.091 363.192 466.338 362.538 466.338 361.725C466.338 360.898 466.091 360.258 465.598 359.805C465.118 359.352 464.378 359.125 463.378 359.125H460.698V364.405Z" fill="#7C828A"/>
<path d="M349.804 357.725V371.565H347.984V361.245L343.384 371.565H342.104L337.484 361.225V371.565H335.664V357.725H337.624L342.744 369.165L347.864 357.725H349.804ZM361.131 368.465H355.051L353.931 371.565H352.011L357.051 357.705H359.151L364.171 371.565H362.251L361.131 368.465ZM360.611 366.985L358.091 359.945L355.571 366.985H360.611ZM373.707 371.565L370.387 365.865H368.187V371.565H366.367V357.625H370.867C371.921 357.625 372.807 357.805 373.527 358.165C374.261 358.525 374.807 359.012 375.167 359.625C375.527 360.238 375.707 360.938 375.707 361.725C375.707 362.685 375.427 363.532 374.867 364.265C374.321 364.998 373.494 365.485 372.387 365.725L375.887 371.565H373.707ZM368.187 364.405H370.867C371.854 364.405 372.594 364.165 373.087 363.685C373.581 363.192 373.827 362.538 373.827 361.725C373.827 360.898 373.581 360.258 373.087 359.805C372.607 359.352 371.867 359.125 370.867 359.125H368.187V364.405Z" fill="#7C828A"/>
<path d="M253.343 357.625V359.105H247.283V363.805H252.203V365.285H247.283V371.565H245.463V357.625H253.343ZM257.362 359.105V363.765H262.442V365.265H257.362V370.065H263.042V371.565H255.542V357.605H263.042V359.105H257.362ZM272.775 364.385C273.282 364.465 273.742 364.672 274.155 365.005C274.582 365.338 274.915 365.752 275.155 366.245C275.409 366.738 275.535 367.265 275.535 367.825C275.535 368.532 275.355 369.172 274.995 369.745C274.635 370.305 274.109 370.752 273.415 371.085C272.735 371.405 271.929 371.565 270.995 371.565H265.795V357.625H270.795C271.742 357.625 272.549 357.785 273.215 358.105C273.882 358.412 274.382 358.832 274.715 359.365C275.049 359.898 275.215 360.498 275.215 361.165C275.215 361.992 274.989 362.678 274.535 363.225C274.095 363.758 273.509 364.145 272.775 364.385ZM267.615 363.645H270.675C271.529 363.645 272.189 363.445 272.655 363.045C273.122 362.645 273.355 362.092 273.355 361.385C273.355 360.678 273.122 360.125 272.655 359.725C272.189 359.325 271.515 359.125 270.635 359.125H267.615V363.645ZM270.835 370.065C271.742 370.065 272.449 369.852 272.955 369.425C273.462 368.998 273.715 368.405 273.715 367.645C273.715 366.872 273.449 366.265 272.915 365.825C272.382 365.372 271.669 365.145 270.775 365.145H267.615V370.065H270.835Z" fill="#7C828A"/>
<path d="M150.676 357.625V367.925C150.676 369.072 150.322 369.992 149.616 370.685C148.909 371.365 147.976 371.705 146.816 371.705C145.642 371.705 144.702 371.358 143.996 370.665C143.289 369.958 142.936 368.998 142.936 367.785H144.756C144.769 368.465 144.942 369.018 145.276 369.445C145.622 369.872 146.136 370.085 146.816 370.085C147.496 370.085 148.002 369.885 148.336 369.485C148.669 369.072 148.836 368.552 148.836 367.925V357.625H150.676ZM162.501 368.465H156.421L155.301 371.565H153.381L158.421 357.705H160.521L165.541 371.565H163.621L162.501 368.465ZM161.981 366.985L159.461 359.945L156.941 366.985H161.981ZM178.698 371.565H176.878L169.558 360.465V371.565H167.738V357.605H169.558L176.878 368.685V357.605H178.698V371.565Z" fill="#7C828A"/>
<path d="M99.6025 206.52H688.377" stroke="#7C828A" stroke-dasharray="1 3"/>
<rect x="637.874" y="214.049" width="19.7079" height="86.9976" rx="4" fill="#3C2A21"/>
<rect x="539.337" y="214.049" width="19.7079" height="75.2864" rx="4" fill="#3C2A21"/>
<rect x="440.795" y="214.049" width="19.7079" height="45.1718" rx="4" fill="#3C2A21"/>
<rect x="344.719" y="214.049" width="19.7079" height="100.382" rx="4" fill="#3C2A21"/>
<rect x="251.108" y="214.049" width="19.7079" height="66.9212" rx="4" fill="#3C2A21"/>
<rect x="150.104" y="214.049" width="19.7079" height="50.1909" rx="4" fill="#3C2A21"/>
<rect x="637.874" y="45.1492" width="19.7079" height="153.842" rx="4" fill="#D5CEA3"/>
<rect x="539.337" y="23.4105" width="19.7079" height="175.581" rx="4" fill="#D5CEA3"/>
<rect x="440.796" y="63.5436" width="19.7079" height="135.448" rx="4" fill="#D5CEA3"/>
<rect x="344.719" y="33.4434" width="19.7079" height="165.548" rx="4" fill="#D5CEA3"/>
<rect x="251.107" width="19.7079" height="198.992" rx="4" fill="#D5CEA3"/>
<rect x="150.103" y="98.6594" width="19.7079" height="100.332" rx="4" fill="#D5CEA3"/>
</svg>
